<svg xmlns="http://www.w3.org/2000/svg" viewBox="0 0 752 752"><title>Asset 3</title><g id="Layer_2" data-name="Layer 2"><g id="Layer_1-2" data-name="Layer 1"><path fill="#fff" d="M725.06,292H688.92a26.89,26.89,0,0,1-25.35-17.86,305.57,305.57,0,0,0-12.19-29.38,26.9,26.9,0,0,1,5.27-30.62l25.57-25.57a26.93,26.93,0,0,0,0-38.09l-80.7-80.7a26.93,26.93,0,0,0-38.09,0L537.86,95.35a26.9,26.9,0,0,1-30.62,5.27,305.57,305.57,0,0,0-29.38-12.19A26.89,26.89,0,0,1,460,63.08V26.94A26.94,26.94,0,0,0,433.06,0H318.94A26.94,26.94,0,0,0,292,26.94V63.08a26.89,26.89,0,0,1-17.86,25.35,305.57,305.57,0,0,0-29.38,12.19,26.9,26.9,0,0,1-30.62-5.27L188.57,69.78a26.93,26.93,0,0,0-38.09,0l-80.7,80.7a26.93,26.93,0,0,0,0,38.09l25.57,25.57a26.9,26.9,0,0,1,5.27,30.62,305.57,305.57,0,0,0-12.19,29.38A26.89,26.89,0,0,1,63.08,292H26.94A26.94,26.94,0,0,0,0,318.94V433.06A26.94,26.94,0,0,0,26.94,460H63.08a26.89,26.89,0,0,1,25.35,17.86,305.57,305.57,0,0,0,12.19,29.38,26.9,26.9,0,0,1-5.27,30.62L69.78,563.43a26.93,26.93,0,0,0,0,38.09l80.7,80.7a26.93,26.93,0,0,0,38.09,0l25.57-25.57a26.9,26.9,0,0,1,30.62-5.27,305.57,305.57,0,0,0,29.38,12.19A26.89,26.89,0,0,1,292,688.92v36.14A26.94,26.94,0,0,0,318.94,752H433.06A26.94,26.94,0,0,0,460,725.06V688.92a26.89,26.89,0,0,1,17.86-25.35,305.57,305.57,0,0,0,29.38-12.19,26.9,26.9,0,0,1,30.62,5.27l25.57,25.57a26.93,26.93,0,0,0,38.09,0l80.7-80.7a26.93,26.93,0,0,0,0-38.09l-25.57-25.57a26.9,26.9,0,0,1-5.27-30.62,305.57,305.57,0,0,0,12.19-29.38A26.89,26.89,0,0,1,688.92,460h36.14A26.94,26.94,0,0,0,752,433.06V318.94A26.94,26.94,0,0,0,725.06,292ZM502.34,543.37,491,261h-8.4L431.13,472.17q-4.94,24.22-30.65,24.23H351q-25.71,0-30.66-24.23L268.46,261h-8.41l-9.89,282.34H179l12.36-313q1.49-28.18,28.18-28.19h72.69q24.22,0,29.67,24.23l41.53,170.1q4,16.31,8.9,48h6.43q.48-2.48,3.71-20.27t5.19-27.69l41-170.1q5.94-24.22,30.66-24.23H532q27.18,0,28.18,28.19l13.35,313Z"/></g></g></svg>